G04 #@! TF.FileFunction,Legend,Bot*
%FSLAX46Y46*%
G04 Gerber Fmt 4.6, Leading zero omitted, Abs format (unit mm)*
G04 Created by KiCad (PCBNEW 4.0.4+dfsg1-stable) date Sun Dec 11 16:04:20 2016*
%MOMM*%
%LPD*%
G01*
G04 APERTURE LIST*
%ADD10C,0.100000*%
%ADD11C,0.150000*%
%ADD12C,0.200000*%
G04 APERTURE END LIST*
D10*
D11*
X175094000Y-66556000D02*
X175094000Y-67556000D01*
X173394000Y-67556000D02*
X173394000Y-66556000D01*
X152742000Y-66556000D02*
X152742000Y-67556000D01*
X151042000Y-67556000D02*
X151042000Y-66556000D01*
X83986000Y-67556000D02*
X83986000Y-66556000D01*
X85686000Y-66556000D02*
X85686000Y-67556000D01*
X55868000Y-65202000D02*
X55868000Y-67902000D01*
X54368000Y-65202000D02*
X54368000Y-67902000D01*
X55268000Y-66702000D02*
X55018000Y-66702000D01*
X55018000Y-66702000D02*
X55168000Y-66552000D01*
X54768000Y-66452000D02*
X55468000Y-66452000D01*
X55118000Y-66802000D02*
X55118000Y-67152000D01*
X55118000Y-66452000D02*
X54768000Y-66802000D01*
X54768000Y-66802000D02*
X55468000Y-66802000D01*
X55468000Y-66802000D02*
X55118000Y-66452000D01*
X61138000Y-70116000D02*
X63838000Y-70116000D01*
X61138000Y-71616000D02*
X63838000Y-71616000D01*
X62638000Y-70716000D02*
X62638000Y-70966000D01*
X62638000Y-70966000D02*
X62488000Y-70816000D01*
X62388000Y-71216000D02*
X62388000Y-70516000D01*
X62738000Y-70866000D02*
X63088000Y-70866000D01*
X62388000Y-70866000D02*
X62738000Y-71216000D01*
X62738000Y-71216000D02*
X62738000Y-70516000D01*
X62738000Y-70516000D02*
X62388000Y-70866000D01*
X61392000Y-62242000D02*
X64092000Y-62242000D01*
X61392000Y-63742000D02*
X64092000Y-63742000D01*
X62892000Y-62842000D02*
X62892000Y-63092000D01*
X62892000Y-63092000D02*
X62742000Y-62942000D01*
X62642000Y-63342000D02*
X62642000Y-62642000D01*
X62992000Y-62992000D02*
X63342000Y-62992000D01*
X62642000Y-62992000D02*
X62992000Y-63342000D01*
X62992000Y-63342000D02*
X62992000Y-62642000D01*
X62992000Y-62642000D02*
X62642000Y-62992000D01*
X70028000Y-62242000D02*
X72728000Y-62242000D01*
X70028000Y-63742000D02*
X72728000Y-63742000D01*
X71528000Y-62842000D02*
X71528000Y-63092000D01*
X71528000Y-63092000D02*
X71378000Y-62942000D01*
X71278000Y-63342000D02*
X71278000Y-62642000D01*
X71628000Y-62992000D02*
X71978000Y-62992000D01*
X71278000Y-62992000D02*
X71628000Y-63342000D01*
X71628000Y-63342000D02*
X71628000Y-62642000D01*
X71628000Y-62642000D02*
X71278000Y-62992000D01*
X86118000Y-68656000D02*
X86118000Y-65956000D01*
X87618000Y-68656000D02*
X87618000Y-65956000D01*
X86718000Y-67156000D02*
X86968000Y-67156000D01*
X86968000Y-67156000D02*
X86818000Y-67306000D01*
X87218000Y-67406000D02*
X86518000Y-67406000D01*
X86868000Y-67056000D02*
X86868000Y-66706000D01*
X86868000Y-67406000D02*
X87218000Y-67056000D01*
X87218000Y-67056000D02*
X86518000Y-67056000D01*
X86518000Y-67056000D02*
X86868000Y-67406000D01*
X190424000Y-62242000D02*
X193124000Y-62242000D01*
X190424000Y-63742000D02*
X193124000Y-63742000D01*
X191924000Y-62842000D02*
X191924000Y-63092000D01*
X191924000Y-63092000D02*
X191774000Y-62942000D01*
X191674000Y-63342000D02*
X191674000Y-62642000D01*
X192024000Y-62992000D02*
X192374000Y-62992000D01*
X191674000Y-62992000D02*
X192024000Y-63342000D01*
X192024000Y-63342000D02*
X192024000Y-62642000D01*
X192024000Y-62642000D02*
X191674000Y-62992000D01*
X116344000Y-68656000D02*
X116344000Y-65956000D01*
X117844000Y-68656000D02*
X117844000Y-65956000D01*
X116944000Y-67156000D02*
X117194000Y-67156000D01*
X117194000Y-67156000D02*
X117044000Y-67306000D01*
X117444000Y-67406000D02*
X116744000Y-67406000D01*
X117094000Y-67056000D02*
X117094000Y-66706000D01*
X117094000Y-67406000D02*
X117444000Y-67056000D01*
X117444000Y-67056000D02*
X116744000Y-67056000D01*
X116744000Y-67056000D02*
X117094000Y-67406000D01*
X103112000Y-65456000D02*
X103112000Y-68156000D01*
X101612000Y-65456000D02*
X101612000Y-68156000D01*
X102512000Y-66956000D02*
X102262000Y-66956000D01*
X102262000Y-66956000D02*
X102412000Y-66806000D01*
X102012000Y-66706000D02*
X102712000Y-66706000D01*
X102362000Y-67056000D02*
X102362000Y-67406000D01*
X102362000Y-66706000D02*
X102012000Y-67056000D01*
X102012000Y-67056000D02*
X102712000Y-67056000D01*
X102712000Y-67056000D02*
X102362000Y-66706000D01*
X147816000Y-65456000D02*
X147816000Y-68156000D01*
X146316000Y-65456000D02*
X146316000Y-68156000D01*
X147216000Y-66956000D02*
X146966000Y-66956000D01*
X146966000Y-66956000D02*
X147116000Y-66806000D01*
X146716000Y-66706000D02*
X147416000Y-66706000D01*
X147066000Y-67056000D02*
X147066000Y-67406000D01*
X147066000Y-66706000D02*
X146716000Y-67056000D01*
X146716000Y-67056000D02*
X147416000Y-67056000D01*
X147416000Y-67056000D02*
X147066000Y-66706000D01*
X132830000Y-65202000D02*
X132830000Y-67902000D01*
X131330000Y-65202000D02*
X131330000Y-67902000D01*
X132230000Y-66702000D02*
X131980000Y-66702000D01*
X131980000Y-66702000D02*
X132130000Y-66552000D01*
X131730000Y-66452000D02*
X132430000Y-66452000D01*
X132080000Y-66802000D02*
X132080000Y-67152000D01*
X132080000Y-66452000D02*
X131730000Y-66802000D01*
X131730000Y-66802000D02*
X132430000Y-66802000D01*
X132430000Y-66802000D02*
X132080000Y-66452000D01*
X177534000Y-65456000D02*
X177534000Y-68156000D01*
X176034000Y-65456000D02*
X176034000Y-68156000D01*
X176934000Y-66956000D02*
X176684000Y-66956000D01*
X176684000Y-66956000D02*
X176834000Y-66806000D01*
X176434000Y-66706000D02*
X177134000Y-66706000D01*
X176784000Y-67056000D02*
X176784000Y-67406000D01*
X176784000Y-66706000D02*
X176434000Y-67056000D01*
X176434000Y-67056000D02*
X177134000Y-67056000D01*
X177134000Y-67056000D02*
X176784000Y-66706000D01*
X162802000Y-65456000D02*
X162802000Y-68156000D01*
X161302000Y-65456000D02*
X161302000Y-68156000D01*
X162202000Y-66956000D02*
X161952000Y-66956000D01*
X161952000Y-66956000D02*
X162102000Y-66806000D01*
X161702000Y-66706000D02*
X162402000Y-66706000D01*
X162052000Y-67056000D02*
X162052000Y-67406000D01*
X162052000Y-66706000D02*
X161702000Y-67056000D01*
X161702000Y-67056000D02*
X162402000Y-67056000D01*
X162402000Y-67056000D02*
X162052000Y-66706000D01*
X199568000Y-62242000D02*
X202268000Y-62242000D01*
X199568000Y-63742000D02*
X202268000Y-63742000D01*
X201068000Y-62842000D02*
X201068000Y-63092000D01*
X201068000Y-63092000D02*
X200918000Y-62942000D01*
X200818000Y-63342000D02*
X200818000Y-62642000D01*
X201168000Y-62992000D02*
X201518000Y-62992000D01*
X200818000Y-62992000D02*
X201168000Y-63342000D01*
X201168000Y-63342000D02*
X201168000Y-62642000D01*
X201168000Y-62642000D02*
X200818000Y-62992000D01*
X208165000Y-68656000D02*
X208165000Y-65956000D01*
X209665000Y-68656000D02*
X209665000Y-65956000D01*
X208765000Y-67156000D02*
X209015000Y-67156000D01*
X209015000Y-67156000D02*
X208865000Y-67306000D01*
X209265000Y-67406000D02*
X208565000Y-67406000D01*
X208915000Y-67056000D02*
X208915000Y-66706000D01*
X208915000Y-67406000D02*
X209265000Y-67056000D01*
X209265000Y-67056000D02*
X208565000Y-67056000D01*
X208565000Y-67056000D02*
X208915000Y-67406000D01*
X199568000Y-70116000D02*
X202268000Y-70116000D01*
X199568000Y-71616000D02*
X202268000Y-71616000D01*
X201068000Y-70716000D02*
X201068000Y-70966000D01*
X201068000Y-70966000D02*
X200918000Y-70816000D01*
X200818000Y-71216000D02*
X200818000Y-70516000D01*
X201168000Y-70866000D02*
X201518000Y-70866000D01*
X200818000Y-70866000D02*
X201168000Y-71216000D01*
X201168000Y-71216000D02*
X201168000Y-70516000D01*
X201168000Y-70516000D02*
X200818000Y-70866000D01*
X159766000Y-67306000D02*
X159766000Y-67556000D01*
X159766000Y-66806000D02*
X159766000Y-66556000D01*
X159766000Y-66806000D02*
X159416000Y-67306000D01*
X159416000Y-67306000D02*
X160116000Y-67306000D01*
X160116000Y-67306000D02*
X159766000Y-66806000D01*
X159416000Y-66806000D02*
X160116000Y-66806000D01*
X160566000Y-65756000D02*
X160566000Y-68156000D01*
X158966000Y-65756000D02*
X158966000Y-68156000D01*
X79615000Y-67656000D02*
X79615000Y-66456000D01*
X77865000Y-66456000D02*
X77865000Y-67656000D01*
X79897000Y-66456000D02*
X79897000Y-67656000D01*
X81647000Y-67656000D02*
X81647000Y-66456000D01*
X186295000Y-67656000D02*
X186295000Y-66456000D01*
X184545000Y-66456000D02*
X184545000Y-67656000D01*
X81929000Y-66456000D02*
X81929000Y-67656000D01*
X83679000Y-67656000D02*
X83679000Y-66456000D01*
X150481000Y-67656000D02*
X150481000Y-66456000D01*
X148731000Y-66456000D02*
X148731000Y-67656000D01*
X57545000Y-66456000D02*
X57545000Y-67656000D01*
X59295000Y-67656000D02*
X59295000Y-66456000D01*
X182513000Y-66456000D02*
X182513000Y-67656000D01*
X184263000Y-67656000D02*
X184263000Y-66456000D01*
X179070000Y-68838000D02*
X179070000Y-68588000D01*
X179070000Y-69338000D02*
X179070000Y-69588000D01*
X179070000Y-69338000D02*
X179420000Y-68838000D01*
X179420000Y-68838000D02*
X178720000Y-68838000D01*
X178720000Y-68838000D02*
X179070000Y-69338000D01*
X179420000Y-69338000D02*
X178720000Y-69338000D01*
X178270000Y-70388000D02*
X178270000Y-67988000D01*
X179870000Y-70388000D02*
X179870000Y-67988000D01*
X181356000Y-68838000D02*
X181356000Y-68588000D01*
X181356000Y-69338000D02*
X181356000Y-69588000D01*
X181356000Y-69338000D02*
X181706000Y-68838000D01*
X181706000Y-68838000D02*
X181006000Y-68838000D01*
X181006000Y-68838000D02*
X181356000Y-69338000D01*
X181706000Y-69338000D02*
X181006000Y-69338000D01*
X180556000Y-70388000D02*
X180556000Y-67988000D01*
X182156000Y-70388000D02*
X182156000Y-67988000D01*
X179070000Y-64774000D02*
X179070000Y-64524000D01*
X179070000Y-65274000D02*
X179070000Y-65524000D01*
X179070000Y-65274000D02*
X179420000Y-64774000D01*
X179420000Y-64774000D02*
X178720000Y-64774000D01*
X178720000Y-64774000D02*
X179070000Y-65274000D01*
X179420000Y-65274000D02*
X178720000Y-65274000D01*
X178270000Y-66324000D02*
X178270000Y-63924000D01*
X179870000Y-66324000D02*
X179870000Y-63924000D01*
X181356000Y-64774000D02*
X181356000Y-64524000D01*
X181356000Y-65274000D02*
X181356000Y-65524000D01*
X181356000Y-65274000D02*
X181706000Y-64774000D01*
X181706000Y-64774000D02*
X181006000Y-64774000D01*
X181006000Y-64774000D02*
X181356000Y-65274000D01*
X181706000Y-65274000D02*
X181006000Y-65274000D01*
X180556000Y-66324000D02*
X180556000Y-63924000D01*
X182156000Y-66324000D02*
X182156000Y-63924000D01*
X122936000Y-68068000D02*
X122936000Y-68318000D01*
X122936000Y-67568000D02*
X122936000Y-67318000D01*
X122936000Y-67568000D02*
X122586000Y-68068000D01*
X122586000Y-68068000D02*
X123286000Y-68068000D01*
X123286000Y-68068000D02*
X122936000Y-67568000D01*
X122586000Y-67568000D02*
X123286000Y-67568000D01*
X123736000Y-66518000D02*
X123736000Y-68918000D01*
X122136000Y-66518000D02*
X122136000Y-68918000D01*
D12*
X169180000Y-68056000D02*
X171180000Y-68056000D01*
X171180000Y-68056000D02*
X171180000Y-66056000D01*
X171180000Y-66056000D02*
X169680000Y-66056000D01*
X169680000Y-66056000D02*
X169180000Y-66556000D01*
X169180000Y-66556000D02*
X169180000Y-68056000D01*
X167680000Y-68056000D02*
X167680000Y-66056000D01*
X169680000Y-64556000D02*
X170680000Y-64556000D01*
X172680000Y-68056000D02*
X172680000Y-66056000D01*
X169680000Y-69556000D02*
X170680000Y-69556000D01*
X126508000Y-67802000D02*
X128508000Y-67802000D01*
X128508000Y-67802000D02*
X128508000Y-65802000D01*
X128508000Y-65802000D02*
X127008000Y-65802000D01*
X127008000Y-65802000D02*
X126508000Y-66302000D01*
X126508000Y-66302000D02*
X126508000Y-67802000D01*
X125008000Y-67802000D02*
X125008000Y-65802000D01*
X127008000Y-64302000D02*
X128008000Y-64302000D01*
X130008000Y-67802000D02*
X130008000Y-65802000D01*
X127008000Y-69302000D02*
X128008000Y-69302000D01*
X92980000Y-68056000D02*
X94980000Y-68056000D01*
X94980000Y-68056000D02*
X94980000Y-66056000D01*
X94980000Y-66056000D02*
X93480000Y-66056000D01*
X93480000Y-66056000D02*
X92980000Y-66556000D01*
X92980000Y-66556000D02*
X92980000Y-68056000D01*
X91480000Y-68056000D02*
X91480000Y-66056000D01*
X93480000Y-64556000D02*
X94480000Y-64556000D01*
X96480000Y-68056000D02*
X96480000Y-66056000D01*
X93480000Y-69556000D02*
X94480000Y-69556000D01*
D11*
X209245000Y-71489000D02*
X206545000Y-71489000D01*
X209245000Y-69989000D02*
X206545000Y-69989000D01*
X207745000Y-70889000D02*
X207745000Y-70639000D01*
X207745000Y-70639000D02*
X207895000Y-70789000D01*
X207995000Y-70389000D02*
X207995000Y-71089000D01*
X207645000Y-70739000D02*
X207295000Y-70739000D01*
X207995000Y-70739000D02*
X207645000Y-70389000D01*
X207645000Y-70389000D02*
X207645000Y-71089000D01*
X207645000Y-71089000D02*
X207995000Y-70739000D01*
X206045000Y-62242000D02*
X208745000Y-62242000D01*
X206045000Y-63742000D02*
X208745000Y-63742000D01*
X207545000Y-62842000D02*
X207545000Y-63092000D01*
X207545000Y-63092000D02*
X207395000Y-62942000D01*
X207295000Y-63342000D02*
X207295000Y-62642000D01*
X207645000Y-62992000D02*
X207995000Y-62992000D01*
X207295000Y-62992000D02*
X207645000Y-63342000D01*
X207645000Y-63342000D02*
X207645000Y-62642000D01*
X207645000Y-62642000D02*
X207295000Y-62992000D01*
X176701143Y-66889334D02*
X176748762Y-66841715D01*
X176796381Y-66698858D01*
X176796381Y-66603620D01*
X176748762Y-66460762D01*
X176653524Y-66365524D01*
X176558286Y-66317905D01*
X176367810Y-66270286D01*
X176224952Y-66270286D01*
X176034476Y-66317905D01*
X175939238Y-66365524D01*
X175844000Y-66460762D01*
X175796381Y-66603620D01*
X175796381Y-66698858D01*
X175844000Y-66841715D01*
X175891619Y-66889334D01*
X175891619Y-67270286D02*
X175844000Y-67317905D01*
X175796381Y-67413143D01*
X175796381Y-67651239D01*
X175844000Y-67746477D01*
X175891619Y-67794096D01*
X175986857Y-67841715D01*
X176082095Y-67841715D01*
X176224952Y-67794096D01*
X176796381Y-67222667D01*
X176796381Y-67841715D01*
X154349143Y-66889334D02*
X154396762Y-66841715D01*
X154444381Y-66698858D01*
X154444381Y-66603620D01*
X154396762Y-66460762D01*
X154301524Y-66365524D01*
X154206286Y-66317905D01*
X154015810Y-66270286D01*
X153872952Y-66270286D01*
X153682476Y-66317905D01*
X153587238Y-66365524D01*
X153492000Y-66460762D01*
X153444381Y-66603620D01*
X153444381Y-66698858D01*
X153492000Y-66841715D01*
X153539619Y-66889334D01*
X153444381Y-67222667D02*
X153444381Y-67841715D01*
X153825333Y-67508381D01*
X153825333Y-67651239D01*
X153872952Y-67746477D01*
X153920571Y-67794096D01*
X154015810Y-67841715D01*
X154253905Y-67841715D01*
X154349143Y-67794096D01*
X154396762Y-67746477D01*
X154444381Y-67651239D01*
X154444381Y-67365524D01*
X154396762Y-67270286D01*
X154349143Y-67222667D01*
X83093143Y-66889334D02*
X83140762Y-66841715D01*
X83188381Y-66698858D01*
X83188381Y-66603620D01*
X83140762Y-66460762D01*
X83045524Y-66365524D01*
X82950286Y-66317905D01*
X82759810Y-66270286D01*
X82616952Y-66270286D01*
X82426476Y-66317905D01*
X82331238Y-66365524D01*
X82236000Y-66460762D01*
X82188381Y-66603620D01*
X82188381Y-66698858D01*
X82236000Y-66841715D01*
X82283619Y-66889334D01*
X82188381Y-67794096D02*
X82188381Y-67317905D01*
X82664571Y-67270286D01*
X82616952Y-67317905D01*
X82569333Y-67413143D01*
X82569333Y-67651239D01*
X82616952Y-67746477D01*
X82664571Y-67794096D01*
X82759810Y-67841715D01*
X82997905Y-67841715D01*
X83093143Y-67794096D01*
X83140762Y-67746477D01*
X83188381Y-67651239D01*
X83188381Y-67413143D01*
X83140762Y-67317905D01*
X83093143Y-67270286D01*
X53820381Y-66063905D02*
X52820381Y-66063905D01*
X52820381Y-66302000D01*
X52868000Y-66444858D01*
X52963238Y-66540096D01*
X53058476Y-66587715D01*
X53248952Y-66635334D01*
X53391810Y-66635334D01*
X53582286Y-66587715D01*
X53677524Y-66540096D01*
X53772762Y-66444858D01*
X53820381Y-66302000D01*
X53820381Y-66063905D01*
X52820381Y-67540096D02*
X52820381Y-67063905D01*
X53296571Y-67016286D01*
X53248952Y-67063905D01*
X53201333Y-67159143D01*
X53201333Y-67397239D01*
X53248952Y-67492477D01*
X53296571Y-67540096D01*
X53391810Y-67587715D01*
X53629905Y-67587715D01*
X53725143Y-67540096D01*
X53772762Y-67492477D01*
X53820381Y-67397239D01*
X53820381Y-67159143D01*
X53772762Y-67063905D01*
X53725143Y-67016286D01*
X63476095Y-73068381D02*
X63476095Y-72068381D01*
X63238000Y-72068381D01*
X63095142Y-72116000D01*
X62999904Y-72211238D01*
X62952285Y-72306476D01*
X62904666Y-72496952D01*
X62904666Y-72639810D01*
X62952285Y-72830286D01*
X62999904Y-72925524D01*
X63095142Y-73020762D01*
X63238000Y-73068381D01*
X63476095Y-73068381D01*
X62047523Y-72068381D02*
X62238000Y-72068381D01*
X62333238Y-72116000D01*
X62380857Y-72163619D01*
X62476095Y-72306476D01*
X62523714Y-72496952D01*
X62523714Y-72877905D01*
X62476095Y-72973143D01*
X62428476Y-73020762D01*
X62333238Y-73068381D01*
X62142761Y-73068381D01*
X62047523Y-73020762D01*
X61999904Y-72973143D01*
X61952285Y-72877905D01*
X61952285Y-72639810D01*
X61999904Y-72544571D01*
X62047523Y-72496952D01*
X62142761Y-72449333D01*
X62333238Y-72449333D01*
X62428476Y-72496952D01*
X62476095Y-72544571D01*
X62523714Y-72639810D01*
X63730095Y-65194381D02*
X63730095Y-64194381D01*
X63492000Y-64194381D01*
X63349142Y-64242000D01*
X63253904Y-64337238D01*
X63206285Y-64432476D01*
X63158666Y-64622952D01*
X63158666Y-64765810D01*
X63206285Y-64956286D01*
X63253904Y-65051524D01*
X63349142Y-65146762D01*
X63492000Y-65194381D01*
X63730095Y-65194381D01*
X62825333Y-64194381D02*
X62158666Y-64194381D01*
X62587238Y-65194381D01*
X72366095Y-65194381D02*
X72366095Y-64194381D01*
X72128000Y-64194381D01*
X71985142Y-64242000D01*
X71889904Y-64337238D01*
X71842285Y-64432476D01*
X71794666Y-64622952D01*
X71794666Y-64765810D01*
X71842285Y-64956286D01*
X71889904Y-65051524D01*
X71985142Y-65146762D01*
X72128000Y-65194381D01*
X72366095Y-65194381D01*
X71318476Y-65194381D02*
X71128000Y-65194381D01*
X71032761Y-65146762D01*
X70985142Y-65099143D01*
X70889904Y-64956286D01*
X70842285Y-64765810D01*
X70842285Y-64384857D01*
X70889904Y-64289619D01*
X70937523Y-64242000D01*
X71032761Y-64194381D01*
X71223238Y-64194381D01*
X71318476Y-64242000D01*
X71366095Y-64289619D01*
X71413714Y-64384857D01*
X71413714Y-64622952D01*
X71366095Y-64718190D01*
X71318476Y-64765810D01*
X71223238Y-64813429D01*
X71032761Y-64813429D01*
X70937523Y-64765810D01*
X70889904Y-64718190D01*
X70842285Y-64622952D01*
X89070381Y-65841714D02*
X88070381Y-65841714D01*
X88070381Y-66079809D01*
X88118000Y-66222667D01*
X88213238Y-66317905D01*
X88308476Y-66365524D01*
X88498952Y-66413143D01*
X88641810Y-66413143D01*
X88832286Y-66365524D01*
X88927524Y-66317905D01*
X89022762Y-66222667D01*
X89070381Y-66079809D01*
X89070381Y-65841714D01*
X89070381Y-67365524D02*
X89070381Y-66794095D01*
X89070381Y-67079809D02*
X88070381Y-67079809D01*
X88213238Y-66984571D01*
X88308476Y-66889333D01*
X88356095Y-66794095D01*
X88070381Y-67984571D02*
X88070381Y-68079810D01*
X88118000Y-68175048D01*
X88165619Y-68222667D01*
X88260857Y-68270286D01*
X88451333Y-68317905D01*
X88689429Y-68317905D01*
X88879905Y-68270286D01*
X88975143Y-68222667D01*
X89022762Y-68175048D01*
X89070381Y-68079810D01*
X89070381Y-67984571D01*
X89022762Y-67889333D01*
X88975143Y-67841714D01*
X88879905Y-67794095D01*
X88689429Y-67746476D01*
X88451333Y-67746476D01*
X88260857Y-67794095D01*
X88165619Y-67841714D01*
X88118000Y-67889333D01*
X88070381Y-67984571D01*
X193238286Y-65194381D02*
X193238286Y-64194381D01*
X193000191Y-64194381D01*
X192857333Y-64242000D01*
X192762095Y-64337238D01*
X192714476Y-64432476D01*
X192666857Y-64622952D01*
X192666857Y-64765810D01*
X192714476Y-64956286D01*
X192762095Y-65051524D01*
X192857333Y-65146762D01*
X193000191Y-65194381D01*
X193238286Y-65194381D01*
X191714476Y-65194381D02*
X192285905Y-65194381D01*
X192000191Y-65194381D02*
X192000191Y-64194381D01*
X192095429Y-64337238D01*
X192190667Y-64432476D01*
X192285905Y-64480095D01*
X190762095Y-65194381D02*
X191333524Y-65194381D01*
X191047810Y-65194381D02*
X191047810Y-64194381D01*
X191143048Y-64337238D01*
X191238286Y-64432476D01*
X191333524Y-64480095D01*
X119296381Y-65841714D02*
X118296381Y-65841714D01*
X118296381Y-66079809D01*
X118344000Y-66222667D01*
X118439238Y-66317905D01*
X118534476Y-66365524D01*
X118724952Y-66413143D01*
X118867810Y-66413143D01*
X119058286Y-66365524D01*
X119153524Y-66317905D01*
X119248762Y-66222667D01*
X119296381Y-66079809D01*
X119296381Y-65841714D01*
X119296381Y-67365524D02*
X119296381Y-66794095D01*
X119296381Y-67079809D02*
X118296381Y-67079809D01*
X118439238Y-66984571D01*
X118534476Y-66889333D01*
X118582095Y-66794095D01*
X118391619Y-67746476D02*
X118344000Y-67794095D01*
X118296381Y-67889333D01*
X118296381Y-68127429D01*
X118344000Y-68222667D01*
X118391619Y-68270286D01*
X118486857Y-68317905D01*
X118582095Y-68317905D01*
X118724952Y-68270286D01*
X119296381Y-67698857D01*
X119296381Y-68317905D01*
X101064381Y-65841714D02*
X100064381Y-65841714D01*
X100064381Y-66079809D01*
X100112000Y-66222667D01*
X100207238Y-66317905D01*
X100302476Y-66365524D01*
X100492952Y-66413143D01*
X100635810Y-66413143D01*
X100826286Y-66365524D01*
X100921524Y-66317905D01*
X101016762Y-66222667D01*
X101064381Y-66079809D01*
X101064381Y-65841714D01*
X101064381Y-67365524D02*
X101064381Y-66794095D01*
X101064381Y-67079809D02*
X100064381Y-67079809D01*
X100207238Y-66984571D01*
X100302476Y-66889333D01*
X100350095Y-66794095D01*
X100064381Y-67698857D02*
X100064381Y-68317905D01*
X100445333Y-67984571D01*
X100445333Y-68127429D01*
X100492952Y-68222667D01*
X100540571Y-68270286D01*
X100635810Y-68317905D01*
X100873905Y-68317905D01*
X100969143Y-68270286D01*
X101016762Y-68222667D01*
X101064381Y-68127429D01*
X101064381Y-67841714D01*
X101016762Y-67746476D01*
X100969143Y-67698857D01*
X145768381Y-65841714D02*
X144768381Y-65841714D01*
X144768381Y-66079809D01*
X144816000Y-66222667D01*
X144911238Y-66317905D01*
X145006476Y-66365524D01*
X145196952Y-66413143D01*
X145339810Y-66413143D01*
X145530286Y-66365524D01*
X145625524Y-66317905D01*
X145720762Y-66222667D01*
X145768381Y-66079809D01*
X145768381Y-65841714D01*
X145768381Y-67365524D02*
X145768381Y-66794095D01*
X145768381Y-67079809D02*
X144768381Y-67079809D01*
X144911238Y-66984571D01*
X145006476Y-66889333D01*
X145054095Y-66794095D01*
X145101714Y-68222667D02*
X145768381Y-68222667D01*
X144720762Y-67984571D02*
X145435048Y-67746476D01*
X145435048Y-68365524D01*
X130782381Y-65587714D02*
X129782381Y-65587714D01*
X129782381Y-65825809D01*
X129830000Y-65968667D01*
X129925238Y-66063905D01*
X130020476Y-66111524D01*
X130210952Y-66159143D01*
X130353810Y-66159143D01*
X130544286Y-66111524D01*
X130639524Y-66063905D01*
X130734762Y-65968667D01*
X130782381Y-65825809D01*
X130782381Y-65587714D01*
X130782381Y-67111524D02*
X130782381Y-66540095D01*
X130782381Y-66825809D02*
X129782381Y-66825809D01*
X129925238Y-66730571D01*
X130020476Y-66635333D01*
X130068095Y-66540095D01*
X129782381Y-68016286D02*
X129782381Y-67540095D01*
X130258571Y-67492476D01*
X130210952Y-67540095D01*
X130163333Y-67635333D01*
X130163333Y-67873429D01*
X130210952Y-67968667D01*
X130258571Y-68016286D01*
X130353810Y-68063905D01*
X130591905Y-68063905D01*
X130687143Y-68016286D01*
X130734762Y-67968667D01*
X130782381Y-67873429D01*
X130782381Y-67635333D01*
X130734762Y-67540095D01*
X130687143Y-67492476D01*
X175486381Y-65841714D02*
X174486381Y-65841714D01*
X174486381Y-66079809D01*
X174534000Y-66222667D01*
X174629238Y-66317905D01*
X174724476Y-66365524D01*
X174914952Y-66413143D01*
X175057810Y-66413143D01*
X175248286Y-66365524D01*
X175343524Y-66317905D01*
X175438762Y-66222667D01*
X175486381Y-66079809D01*
X175486381Y-65841714D01*
X175486381Y-67365524D02*
X175486381Y-66794095D01*
X175486381Y-67079809D02*
X174486381Y-67079809D01*
X174629238Y-66984571D01*
X174724476Y-66889333D01*
X174772095Y-66794095D01*
X174486381Y-68222667D02*
X174486381Y-68032190D01*
X174534000Y-67936952D01*
X174581619Y-67889333D01*
X174724476Y-67794095D01*
X174914952Y-67746476D01*
X175295905Y-67746476D01*
X175391143Y-67794095D01*
X175438762Y-67841714D01*
X175486381Y-67936952D01*
X175486381Y-68127429D01*
X175438762Y-68222667D01*
X175391143Y-68270286D01*
X175295905Y-68317905D01*
X175057810Y-68317905D01*
X174962571Y-68270286D01*
X174914952Y-68222667D01*
X174867333Y-68127429D01*
X174867333Y-67936952D01*
X174914952Y-67841714D01*
X174962571Y-67794095D01*
X175057810Y-67746476D01*
X160754381Y-65841714D02*
X159754381Y-65841714D01*
X159754381Y-66079809D01*
X159802000Y-66222667D01*
X159897238Y-66317905D01*
X159992476Y-66365524D01*
X160182952Y-66413143D01*
X160325810Y-66413143D01*
X160516286Y-66365524D01*
X160611524Y-66317905D01*
X160706762Y-66222667D01*
X160754381Y-66079809D01*
X160754381Y-65841714D01*
X160754381Y-67365524D02*
X160754381Y-66794095D01*
X160754381Y-67079809D02*
X159754381Y-67079809D01*
X159897238Y-66984571D01*
X159992476Y-66889333D01*
X160040095Y-66794095D01*
X159754381Y-67698857D02*
X159754381Y-68365524D01*
X160754381Y-67936952D01*
X202382286Y-65194381D02*
X202382286Y-64194381D01*
X202144191Y-64194381D01*
X202001333Y-64242000D01*
X201906095Y-64337238D01*
X201858476Y-64432476D01*
X201810857Y-64622952D01*
X201810857Y-64765810D01*
X201858476Y-64956286D01*
X201906095Y-65051524D01*
X202001333Y-65146762D01*
X202144191Y-65194381D01*
X202382286Y-65194381D01*
X201429905Y-64289619D02*
X201382286Y-64242000D01*
X201287048Y-64194381D01*
X201048952Y-64194381D01*
X200953714Y-64242000D01*
X200906095Y-64289619D01*
X200858476Y-64384857D01*
X200858476Y-64480095D01*
X200906095Y-64622952D01*
X201477524Y-65194381D01*
X200858476Y-65194381D01*
X200239429Y-64194381D02*
X200144190Y-64194381D01*
X200048952Y-64242000D01*
X200001333Y-64289619D01*
X199953714Y-64384857D01*
X199906095Y-64575333D01*
X199906095Y-64813429D01*
X199953714Y-65003905D01*
X200001333Y-65099143D01*
X200048952Y-65146762D01*
X200144190Y-65194381D01*
X200239429Y-65194381D01*
X200334667Y-65146762D01*
X200382286Y-65099143D01*
X200429905Y-65003905D01*
X200477524Y-64813429D01*
X200477524Y-64575333D01*
X200429905Y-64384857D01*
X200382286Y-64289619D01*
X200334667Y-64242000D01*
X200239429Y-64194381D01*
X211117381Y-65841714D02*
X210117381Y-65841714D01*
X210117381Y-66079809D01*
X210165000Y-66222667D01*
X210260238Y-66317905D01*
X210355476Y-66365524D01*
X210545952Y-66413143D01*
X210688810Y-66413143D01*
X210879286Y-66365524D01*
X210974524Y-66317905D01*
X211069762Y-66222667D01*
X211117381Y-66079809D01*
X211117381Y-65841714D01*
X210212619Y-66794095D02*
X210165000Y-66841714D01*
X210117381Y-66936952D01*
X210117381Y-67175048D01*
X210165000Y-67270286D01*
X210212619Y-67317905D01*
X210307857Y-67365524D01*
X210403095Y-67365524D01*
X210545952Y-67317905D01*
X211117381Y-66746476D01*
X211117381Y-67365524D01*
X211117381Y-68317905D02*
X211117381Y-67746476D01*
X211117381Y-68032190D02*
X210117381Y-68032190D01*
X210260238Y-67936952D01*
X210355476Y-67841714D01*
X210403095Y-67746476D01*
X202382286Y-73068381D02*
X202382286Y-72068381D01*
X202144191Y-72068381D01*
X202001333Y-72116000D01*
X201906095Y-72211238D01*
X201858476Y-72306476D01*
X201810857Y-72496952D01*
X201810857Y-72639810D01*
X201858476Y-72830286D01*
X201906095Y-72925524D01*
X202001333Y-73020762D01*
X202144191Y-73068381D01*
X202382286Y-73068381D01*
X201429905Y-72163619D02*
X201382286Y-72116000D01*
X201287048Y-72068381D01*
X201048952Y-72068381D01*
X200953714Y-72116000D01*
X200906095Y-72163619D01*
X200858476Y-72258857D01*
X200858476Y-72354095D01*
X200906095Y-72496952D01*
X201477524Y-73068381D01*
X200858476Y-73068381D01*
X200477524Y-72163619D02*
X200429905Y-72116000D01*
X200334667Y-72068381D01*
X200096571Y-72068381D01*
X200001333Y-72116000D01*
X199953714Y-72163619D01*
X199906095Y-72258857D01*
X199906095Y-72354095D01*
X199953714Y-72496952D01*
X200525143Y-73068381D01*
X199906095Y-73068381D01*
X158368381Y-65841714D02*
X157368381Y-65841714D01*
X157368381Y-66079809D01*
X157416000Y-66222667D01*
X157511238Y-66317905D01*
X157606476Y-66365524D01*
X157796952Y-66413143D01*
X157939810Y-66413143D01*
X158130286Y-66365524D01*
X158225524Y-66317905D01*
X158320762Y-66222667D01*
X158368381Y-66079809D01*
X158368381Y-65841714D01*
X157463619Y-66794095D02*
X157416000Y-66841714D01*
X157368381Y-66936952D01*
X157368381Y-67175048D01*
X157416000Y-67270286D01*
X157463619Y-67317905D01*
X157558857Y-67365524D01*
X157654095Y-67365524D01*
X157796952Y-67317905D01*
X158368381Y-66746476D01*
X158368381Y-67365524D01*
X157368381Y-68270286D02*
X157368381Y-67794095D01*
X157844571Y-67746476D01*
X157796952Y-67794095D01*
X157749333Y-67889333D01*
X157749333Y-68127429D01*
X157796952Y-68222667D01*
X157844571Y-68270286D01*
X157939810Y-68317905D01*
X158177905Y-68317905D01*
X158273143Y-68270286D01*
X158320762Y-68222667D01*
X158368381Y-68127429D01*
X158368381Y-67889333D01*
X158320762Y-67794095D01*
X158273143Y-67746476D01*
X76568571Y-66722667D02*
X76568571Y-66389333D01*
X77092381Y-66389333D02*
X76092381Y-66389333D01*
X76092381Y-66865524D01*
X77092381Y-67770286D02*
X77092381Y-67198857D01*
X77092381Y-67484571D02*
X76092381Y-67484571D01*
X76235238Y-67389333D01*
X76330476Y-67294095D01*
X76378095Y-67198857D01*
X83324381Y-66889334D02*
X82848190Y-66556000D01*
X83324381Y-66317905D02*
X82324381Y-66317905D01*
X82324381Y-66698858D01*
X82372000Y-66794096D01*
X82419619Y-66841715D01*
X82514857Y-66889334D01*
X82657714Y-66889334D01*
X82752952Y-66841715D01*
X82800571Y-66794096D01*
X82848190Y-66698858D01*
X82848190Y-66317905D01*
X83324381Y-67841715D02*
X83324381Y-67270286D01*
X83324381Y-67556000D02*
X82324381Y-67556000D01*
X82467238Y-67460762D01*
X82562476Y-67365524D01*
X82610095Y-67270286D01*
X183772381Y-66889334D02*
X183296190Y-66556000D01*
X183772381Y-66317905D02*
X182772381Y-66317905D01*
X182772381Y-66698858D01*
X182820000Y-66794096D01*
X182867619Y-66841715D01*
X182962857Y-66889334D01*
X183105714Y-66889334D01*
X183200952Y-66841715D01*
X183248571Y-66794096D01*
X183296190Y-66698858D01*
X183296190Y-66317905D01*
X182867619Y-67270286D02*
X182820000Y-67317905D01*
X182772381Y-67413143D01*
X182772381Y-67651239D01*
X182820000Y-67746477D01*
X182867619Y-67794096D01*
X182962857Y-67841715D01*
X183058095Y-67841715D01*
X183200952Y-67794096D01*
X183772381Y-67222667D01*
X183772381Y-67841715D01*
X85356381Y-66889334D02*
X84880190Y-66556000D01*
X85356381Y-66317905D02*
X84356381Y-66317905D01*
X84356381Y-66698858D01*
X84404000Y-66794096D01*
X84451619Y-66841715D01*
X84546857Y-66889334D01*
X84689714Y-66889334D01*
X84784952Y-66841715D01*
X84832571Y-66794096D01*
X84880190Y-66698858D01*
X84880190Y-66317905D01*
X84356381Y-67222667D02*
X84356381Y-67841715D01*
X84737333Y-67508381D01*
X84737333Y-67651239D01*
X84784952Y-67746477D01*
X84832571Y-67794096D01*
X84927810Y-67841715D01*
X85165905Y-67841715D01*
X85261143Y-67794096D01*
X85308762Y-67746477D01*
X85356381Y-67651239D01*
X85356381Y-67365524D01*
X85308762Y-67270286D01*
X85261143Y-67222667D01*
X147958381Y-66889334D02*
X147482190Y-66556000D01*
X147958381Y-66317905D02*
X146958381Y-66317905D01*
X146958381Y-66698858D01*
X147006000Y-66794096D01*
X147053619Y-66841715D01*
X147148857Y-66889334D01*
X147291714Y-66889334D01*
X147386952Y-66841715D01*
X147434571Y-66794096D01*
X147482190Y-66698858D01*
X147482190Y-66317905D01*
X147291714Y-67746477D02*
X147958381Y-67746477D01*
X146910762Y-67508381D02*
X147625048Y-67270286D01*
X147625048Y-67889334D01*
X60972381Y-66889334D02*
X60496190Y-66556000D01*
X60972381Y-66317905D02*
X59972381Y-66317905D01*
X59972381Y-66698858D01*
X60020000Y-66794096D01*
X60067619Y-66841715D01*
X60162857Y-66889334D01*
X60305714Y-66889334D01*
X60400952Y-66841715D01*
X60448571Y-66794096D01*
X60496190Y-66698858D01*
X60496190Y-66317905D01*
X59972381Y-67794096D02*
X59972381Y-67317905D01*
X60448571Y-67270286D01*
X60400952Y-67317905D01*
X60353333Y-67413143D01*
X60353333Y-67651239D01*
X60400952Y-67746477D01*
X60448571Y-67794096D01*
X60543810Y-67841715D01*
X60781905Y-67841715D01*
X60877143Y-67794096D01*
X60924762Y-67746477D01*
X60972381Y-67651239D01*
X60972381Y-67413143D01*
X60924762Y-67317905D01*
X60877143Y-67270286D01*
X185940381Y-66889334D02*
X185464190Y-66556000D01*
X185940381Y-66317905D02*
X184940381Y-66317905D01*
X184940381Y-66698858D01*
X184988000Y-66794096D01*
X185035619Y-66841715D01*
X185130857Y-66889334D01*
X185273714Y-66889334D01*
X185368952Y-66841715D01*
X185416571Y-66794096D01*
X185464190Y-66698858D01*
X185464190Y-66317905D01*
X184940381Y-67746477D02*
X184940381Y-67556000D01*
X184988000Y-67460762D01*
X185035619Y-67413143D01*
X185178476Y-67317905D01*
X185368952Y-67270286D01*
X185749905Y-67270286D01*
X185845143Y-67317905D01*
X185892762Y-67365524D01*
X185940381Y-67460762D01*
X185940381Y-67651239D01*
X185892762Y-67746477D01*
X185845143Y-67794096D01*
X185749905Y-67841715D01*
X185511810Y-67841715D01*
X185416571Y-67794096D01*
X185368952Y-67746477D01*
X185321333Y-67651239D01*
X185321333Y-67460762D01*
X185368952Y-67365524D01*
X185416571Y-67317905D01*
X185511810Y-67270286D01*
X181372381Y-68349905D02*
X180372381Y-68349905D01*
X180372381Y-68588000D01*
X180420000Y-68730858D01*
X180515238Y-68826096D01*
X180610476Y-68873715D01*
X180800952Y-68921334D01*
X180943810Y-68921334D01*
X181134286Y-68873715D01*
X181229524Y-68826096D01*
X181324762Y-68730858D01*
X181372381Y-68588000D01*
X181372381Y-68349905D01*
X181372381Y-69873715D02*
X181372381Y-69302286D01*
X181372381Y-69588000D02*
X180372381Y-69588000D01*
X180515238Y-69492762D01*
X180610476Y-69397524D01*
X180658095Y-69302286D01*
X183658381Y-68349905D02*
X182658381Y-68349905D01*
X182658381Y-68588000D01*
X182706000Y-68730858D01*
X182801238Y-68826096D01*
X182896476Y-68873715D01*
X183086952Y-68921334D01*
X183229810Y-68921334D01*
X183420286Y-68873715D01*
X183515524Y-68826096D01*
X183610762Y-68730858D01*
X183658381Y-68588000D01*
X183658381Y-68349905D01*
X182753619Y-69302286D02*
X182706000Y-69349905D01*
X182658381Y-69445143D01*
X182658381Y-69683239D01*
X182706000Y-69778477D01*
X182753619Y-69826096D01*
X182848857Y-69873715D01*
X182944095Y-69873715D01*
X183086952Y-69826096D01*
X183658381Y-69254667D01*
X183658381Y-69873715D01*
X181372381Y-64285905D02*
X180372381Y-64285905D01*
X180372381Y-64524000D01*
X180420000Y-64666858D01*
X180515238Y-64762096D01*
X180610476Y-64809715D01*
X180800952Y-64857334D01*
X180943810Y-64857334D01*
X181134286Y-64809715D01*
X181229524Y-64762096D01*
X181324762Y-64666858D01*
X181372381Y-64524000D01*
X181372381Y-64285905D01*
X180372381Y-65190667D02*
X180372381Y-65809715D01*
X180753333Y-65476381D01*
X180753333Y-65619239D01*
X180800952Y-65714477D01*
X180848571Y-65762096D01*
X180943810Y-65809715D01*
X181181905Y-65809715D01*
X181277143Y-65762096D01*
X181324762Y-65714477D01*
X181372381Y-65619239D01*
X181372381Y-65333524D01*
X181324762Y-65238286D01*
X181277143Y-65190667D01*
X183658381Y-64285905D02*
X182658381Y-64285905D01*
X182658381Y-64524000D01*
X182706000Y-64666858D01*
X182801238Y-64762096D01*
X182896476Y-64809715D01*
X183086952Y-64857334D01*
X183229810Y-64857334D01*
X183420286Y-64809715D01*
X183515524Y-64762096D01*
X183610762Y-64666858D01*
X183658381Y-64524000D01*
X183658381Y-64285905D01*
X182991714Y-65714477D02*
X183658381Y-65714477D01*
X182610762Y-65476381D02*
X183325048Y-65238286D01*
X183325048Y-65857334D01*
X121538381Y-67079905D02*
X120538381Y-67079905D01*
X120538381Y-67318000D01*
X120586000Y-67460858D01*
X120681238Y-67556096D01*
X120776476Y-67603715D01*
X120966952Y-67651334D01*
X121109810Y-67651334D01*
X121300286Y-67603715D01*
X121395524Y-67556096D01*
X121490762Y-67460858D01*
X121538381Y-67318000D01*
X121538381Y-67079905D01*
X120966952Y-68222762D02*
X120919333Y-68127524D01*
X120871714Y-68079905D01*
X120776476Y-68032286D01*
X120728857Y-68032286D01*
X120633619Y-68079905D01*
X120586000Y-68127524D01*
X120538381Y-68222762D01*
X120538381Y-68413239D01*
X120586000Y-68508477D01*
X120633619Y-68556096D01*
X120728857Y-68603715D01*
X120776476Y-68603715D01*
X120871714Y-68556096D01*
X120919333Y-68508477D01*
X120966952Y-68413239D01*
X120966952Y-68222762D01*
X121014571Y-68127524D01*
X121062190Y-68079905D01*
X121157429Y-68032286D01*
X121347905Y-68032286D01*
X121443143Y-68079905D01*
X121490762Y-68127524D01*
X121538381Y-68222762D01*
X121538381Y-68413239D01*
X121490762Y-68508477D01*
X121443143Y-68556096D01*
X121347905Y-68603715D01*
X121157429Y-68603715D01*
X121062190Y-68556096D01*
X121014571Y-68508477D01*
X120966952Y-68413239D01*
D12*
X171299047Y-72208381D02*
X171775238Y-72208381D01*
X171775238Y-71208381D01*
X170965714Y-71684571D02*
X170632380Y-71684571D01*
X170489523Y-72208381D02*
X170965714Y-72208381D01*
X170965714Y-71208381D01*
X170489523Y-71208381D01*
X170060952Y-72208381D02*
X170060952Y-71208381D01*
X169822857Y-71208381D01*
X169679999Y-71256000D01*
X169584761Y-71351238D01*
X169537142Y-71446476D01*
X169489523Y-71636952D01*
X169489523Y-71779810D01*
X169537142Y-71970286D01*
X169584761Y-72065524D01*
X169679999Y-72160762D01*
X169822857Y-72208381D01*
X170060952Y-72208381D01*
X168537142Y-72208381D02*
X169108571Y-72208381D01*
X168822857Y-72208381D02*
X168822857Y-71208381D01*
X168918095Y-71351238D01*
X169013333Y-71446476D01*
X169108571Y-71494095D01*
X128627047Y-71954381D02*
X129103238Y-71954381D01*
X129103238Y-70954381D01*
X128293714Y-71430571D02*
X127960380Y-71430571D01*
X127817523Y-71954381D02*
X128293714Y-71954381D01*
X128293714Y-70954381D01*
X127817523Y-70954381D01*
X127388952Y-71954381D02*
X127388952Y-70954381D01*
X127150857Y-70954381D01*
X127007999Y-71002000D01*
X126912761Y-71097238D01*
X126865142Y-71192476D01*
X126817523Y-71382952D01*
X126817523Y-71525810D01*
X126865142Y-71716286D01*
X126912761Y-71811524D01*
X127007999Y-71906762D01*
X127150857Y-71954381D01*
X127388952Y-71954381D01*
X126436571Y-71049619D02*
X126388952Y-71002000D01*
X126293714Y-70954381D01*
X126055618Y-70954381D01*
X125960380Y-71002000D01*
X125912761Y-71049619D01*
X125865142Y-71144857D01*
X125865142Y-71240095D01*
X125912761Y-71382952D01*
X126484190Y-71954381D01*
X125865142Y-71954381D01*
X95099047Y-72208381D02*
X95575238Y-72208381D01*
X95575238Y-71208381D01*
X94765714Y-71684571D02*
X94432380Y-71684571D01*
X94289523Y-72208381D02*
X94765714Y-72208381D01*
X94765714Y-71208381D01*
X94289523Y-71208381D01*
X93860952Y-72208381D02*
X93860952Y-71208381D01*
X93622857Y-71208381D01*
X93479999Y-71256000D01*
X93384761Y-71351238D01*
X93337142Y-71446476D01*
X93289523Y-71636952D01*
X93289523Y-71779810D01*
X93337142Y-71970286D01*
X93384761Y-72065524D01*
X93479999Y-72160762D01*
X93622857Y-72208381D01*
X93860952Y-72208381D01*
X92956190Y-71208381D02*
X92337142Y-71208381D01*
X92670476Y-71589333D01*
X92527618Y-71589333D01*
X92432380Y-71636952D01*
X92384761Y-71684571D01*
X92337142Y-71779810D01*
X92337142Y-72017905D01*
X92384761Y-72113143D01*
X92432380Y-72160762D01*
X92527618Y-72208381D01*
X92813333Y-72208381D01*
X92908571Y-72160762D01*
X92956190Y-72113143D01*
D11*
X208859286Y-69441381D02*
X208859286Y-68441381D01*
X208621191Y-68441381D01*
X208478333Y-68489000D01*
X208383095Y-68584238D01*
X208335476Y-68679476D01*
X208287857Y-68869952D01*
X208287857Y-69012810D01*
X208335476Y-69203286D01*
X208383095Y-69298524D01*
X208478333Y-69393762D01*
X208621191Y-69441381D01*
X208859286Y-69441381D01*
X207335476Y-69441381D02*
X207906905Y-69441381D01*
X207621191Y-69441381D02*
X207621191Y-68441381D01*
X207716429Y-68584238D01*
X207811667Y-68679476D01*
X207906905Y-68727095D01*
X206764048Y-68869952D02*
X206859286Y-68822333D01*
X206906905Y-68774714D01*
X206954524Y-68679476D01*
X206954524Y-68631857D01*
X206906905Y-68536619D01*
X206859286Y-68489000D01*
X206764048Y-68441381D01*
X206573571Y-68441381D01*
X206478333Y-68489000D01*
X206430714Y-68536619D01*
X206383095Y-68631857D01*
X206383095Y-68679476D01*
X206430714Y-68774714D01*
X206478333Y-68822333D01*
X206573571Y-68869952D01*
X206764048Y-68869952D01*
X206859286Y-68917571D01*
X206906905Y-68965190D01*
X206954524Y-69060429D01*
X206954524Y-69250905D01*
X206906905Y-69346143D01*
X206859286Y-69393762D01*
X206764048Y-69441381D01*
X206573571Y-69441381D01*
X206478333Y-69393762D01*
X206430714Y-69346143D01*
X206383095Y-69250905D01*
X206383095Y-69060429D01*
X206430714Y-68965190D01*
X206478333Y-68917571D01*
X206573571Y-68869952D01*
X208859286Y-65194381D02*
X208859286Y-64194381D01*
X208621191Y-64194381D01*
X208478333Y-64242000D01*
X208383095Y-64337238D01*
X208335476Y-64432476D01*
X208287857Y-64622952D01*
X208287857Y-64765810D01*
X208335476Y-64956286D01*
X208383095Y-65051524D01*
X208478333Y-65146762D01*
X208621191Y-65194381D01*
X208859286Y-65194381D01*
X207335476Y-65194381D02*
X207906905Y-65194381D01*
X207621191Y-65194381D02*
X207621191Y-64194381D01*
X207716429Y-64337238D01*
X207811667Y-64432476D01*
X207906905Y-64480095D01*
X206859286Y-65194381D02*
X206668810Y-65194381D01*
X206573571Y-65146762D01*
X206525952Y-65099143D01*
X206430714Y-64956286D01*
X206383095Y-64765810D01*
X206383095Y-64384857D01*
X206430714Y-64289619D01*
X206478333Y-64242000D01*
X206573571Y-64194381D01*
X206764048Y-64194381D01*
X206859286Y-64242000D01*
X206906905Y-64289619D01*
X206954524Y-64384857D01*
X206954524Y-64622952D01*
X206906905Y-64718190D01*
X206859286Y-64765810D01*
X206764048Y-64813429D01*
X206573571Y-64813429D01*
X206478333Y-64765810D01*
X206430714Y-64718190D01*
X206383095Y-64622952D01*
M02*
