G04 #@! TF.FileFunction,Soldermask,Top*
%FSLAX46Y46*%
G04 Gerber Fmt 4.6, Leading zero omitted, Abs format (unit mm)*
G04 Created by KiCad (PCBNEW 4.0.4+dfsg1-stable) date Sun Dec 11 16:04:20 2016*
%MOMM*%
%LPD*%
G01*
G04 APERTURE LIST*
%ADD10C,0.100000*%
%ADD11R,0.600000X1.500000*%
%ADD12O,8.000000X4.000000*%
%ADD13R,1.800860X3.149600*%
%ADD14R,2.501900X1.000760*%
%ADD15R,4.000500X1.998980*%
%ADD16R,1.300000X1.500000*%
G04 APERTURE END LIST*
D10*
D11*
X135382000Y-69756000D03*
X136652000Y-69756000D03*
X137922000Y-69756000D03*
X139192000Y-69756000D03*
X140462000Y-69756000D03*
X141732000Y-69756000D03*
X143002000Y-69756000D03*
X143002000Y-64356000D03*
X141732000Y-64356000D03*
X140462000Y-64356000D03*
X139192000Y-64356000D03*
X137922000Y-64356000D03*
X136652000Y-64356000D03*
X135382000Y-64356000D03*
D12*
X72000000Y-67000000D03*
X192000000Y-67000000D03*
D13*
X174244000Y-64930020D03*
X174244000Y-69181980D03*
X79502000Y-64676020D03*
X79502000Y-68927980D03*
X83947000Y-64676020D03*
X83947000Y-68927980D03*
X89662000Y-64676020D03*
X89662000Y-68927980D03*
X93726000Y-64676020D03*
X93726000Y-68927980D03*
X97790000Y-64676020D03*
X97790000Y-68927980D03*
X101854000Y-64676020D03*
X101854000Y-68927980D03*
X114046000Y-64676020D03*
X114046000Y-68927980D03*
X118237000Y-64676020D03*
X118237000Y-68927980D03*
D14*
X154619960Y-65554860D03*
X154619960Y-67056000D03*
X154619960Y-68557140D03*
D15*
X158572200Y-67056000D03*
D10*
G36*
X156597350Y-68056760D02*
X155848050Y-67556380D01*
X155848050Y-66555620D01*
X156597350Y-66055240D01*
X156597350Y-68056760D01*
X156597350Y-68056760D01*
G37*
D16*
X200025000Y-68279000D03*
X200025000Y-65579000D03*
D13*
X105918000Y-64676020D03*
X105918000Y-68927980D03*
X109982000Y-64676020D03*
X109982000Y-68927980D03*
D16*
X202500000Y-65650000D03*
X202500000Y-68350000D03*
M02*
