G04 #@! TF.FileFunction,Legend,Top*
%FSLAX46Y46*%
G04 Gerber Fmt 4.6, Leading zero omitted, Abs format (unit mm)*
G04 Created by KiCad (PCBNEW 4.0.4+dfsg1-stable) date Sun Dec 11 16:04:20 2016*
%MOMM*%
%LPD*%
G01*
G04 APERTURE LIST*
%ADD10C,0.100000*%
%ADD11C,0.500000*%
%ADD12C,0.150000*%
G04 APERTURE END LIST*
D10*
D11*
X57658477Y-63561952D02*
X58491811Y-66061952D01*
X59325144Y-63561952D01*
X60039429Y-63800048D02*
X60158477Y-63681000D01*
X60396572Y-63561952D01*
X60991810Y-63561952D01*
X61229906Y-63681000D01*
X61348953Y-63800048D01*
X61468001Y-64038143D01*
X61468001Y-64276238D01*
X61348953Y-64633381D01*
X59920382Y-66061952D01*
X61468001Y-66061952D01*
X62539429Y-65823857D02*
X62658477Y-65942905D01*
X62539429Y-66061952D01*
X62420381Y-65942905D01*
X62539429Y-65823857D01*
X62539429Y-66061952D01*
X64206096Y-63561952D02*
X64444191Y-63561952D01*
X64682286Y-63681000D01*
X64801334Y-63800048D01*
X64920381Y-64038143D01*
X65039429Y-64514333D01*
X65039429Y-65109571D01*
X64920381Y-65585762D01*
X64801334Y-65823857D01*
X64682286Y-65942905D01*
X64444191Y-66061952D01*
X64206096Y-66061952D01*
X63968000Y-65942905D01*
X63848953Y-65823857D01*
X63729905Y-65585762D01*
X63610857Y-65109571D01*
X63610857Y-64514333D01*
X63729905Y-64038143D01*
X63848953Y-63800048D01*
X63968000Y-63681000D01*
X64206096Y-63561952D01*
X57420381Y-70311952D02*
X57420381Y-67811952D01*
X58372762Y-67811952D01*
X58610857Y-67931000D01*
X58729905Y-68050048D01*
X58848953Y-68288143D01*
X58848953Y-68645286D01*
X58729905Y-68883381D01*
X58610857Y-69002429D01*
X58372762Y-69121476D01*
X57420381Y-69121476D01*
X59920381Y-69002429D02*
X60753714Y-69002429D01*
X61110857Y-70311952D02*
X59920381Y-70311952D01*
X59920381Y-67811952D01*
X61110857Y-67811952D01*
X61944191Y-67811952D02*
X63491810Y-67811952D01*
X62658477Y-68764333D01*
X63015619Y-68764333D01*
X63253715Y-68883381D01*
X63372762Y-69002429D01*
X63491810Y-69240524D01*
X63491810Y-69835762D01*
X63372762Y-70073857D01*
X63253715Y-70192905D01*
X63015619Y-70311952D01*
X62301334Y-70311952D01*
X62063238Y-70192905D01*
X61944191Y-70073857D01*
X64206095Y-67811952D02*
X65039429Y-70311952D01*
X65872762Y-67811952D01*
D12*
X134742000Y-69131000D02*
X134767000Y-69131000D01*
X134742000Y-64981000D02*
X134857000Y-64981000D01*
X143642000Y-64981000D02*
X143527000Y-64981000D01*
X143642000Y-69131000D02*
X143527000Y-69131000D01*
X134742000Y-69131000D02*
X134742000Y-64981000D01*
X143642000Y-69131000D02*
X143642000Y-64981000D01*
X134767000Y-69131000D02*
X134767000Y-70506000D01*
X172344080Y-71257160D02*
X176143920Y-71257160D01*
X172344080Y-64556640D02*
X172344080Y-69555360D01*
X176143920Y-64559180D02*
X176143920Y-69557900D01*
X171340780Y-71760080D02*
X172440600Y-71760080D01*
X171841160Y-72359520D02*
X171841160Y-71160640D01*
X77602080Y-71003160D02*
X81401920Y-71003160D01*
X77602080Y-64302640D02*
X77602080Y-69301360D01*
X81401920Y-64305180D02*
X81401920Y-69303900D01*
X76598780Y-71506080D02*
X77698600Y-71506080D01*
X77099160Y-72105520D02*
X77099160Y-70906640D01*
X82047080Y-71003160D02*
X85846920Y-71003160D01*
X82047080Y-64302640D02*
X82047080Y-69301360D01*
X85846920Y-64305180D02*
X85846920Y-69303900D01*
X81043780Y-71506080D02*
X82143600Y-71506080D01*
X81544160Y-72105520D02*
X81544160Y-70906640D01*
X87762080Y-71003160D02*
X91561920Y-71003160D01*
X87762080Y-64302640D02*
X87762080Y-69301360D01*
X91561920Y-64305180D02*
X91561920Y-69303900D01*
X86758780Y-71506080D02*
X87858600Y-71506080D01*
X87259160Y-72105520D02*
X87259160Y-70906640D01*
X91826080Y-71003160D02*
X95625920Y-71003160D01*
X91826080Y-64302640D02*
X91826080Y-69301360D01*
X95625920Y-64305180D02*
X95625920Y-69303900D01*
X90822780Y-71506080D02*
X91922600Y-71506080D01*
X91323160Y-72105520D02*
X91323160Y-70906640D01*
X95890080Y-71003160D02*
X99689920Y-71003160D01*
X95890080Y-64302640D02*
X95890080Y-69301360D01*
X99689920Y-64305180D02*
X99689920Y-69303900D01*
X94886780Y-71506080D02*
X95986600Y-71506080D01*
X95387160Y-72105520D02*
X95387160Y-70906640D01*
X99954080Y-71003160D02*
X103753920Y-71003160D01*
X99954080Y-64302640D02*
X99954080Y-69301360D01*
X103753920Y-64305180D02*
X103753920Y-69303900D01*
X98950780Y-71506080D02*
X100050600Y-71506080D01*
X99451160Y-72105520D02*
X99451160Y-70906640D01*
X112146080Y-71003160D02*
X115945920Y-71003160D01*
X112146080Y-64302640D02*
X112146080Y-69301360D01*
X115945920Y-64305180D02*
X115945920Y-69303900D01*
X111142780Y-71506080D02*
X112242600Y-71506080D01*
X111643160Y-72105520D02*
X111643160Y-70906640D01*
X116337080Y-71003160D02*
X120136920Y-71003160D01*
X116337080Y-64302640D02*
X116337080Y-69301360D01*
X120136920Y-64305180D02*
X120136920Y-69303900D01*
X115333780Y-71506080D02*
X116433600Y-71506080D01*
X115834160Y-72105520D02*
X115834160Y-70906640D01*
X156771340Y-65156080D02*
X157071060Y-65405000D01*
X157071060Y-65405000D02*
X157220920Y-65506600D01*
X157220920Y-65506600D02*
X156372560Y-65506600D01*
X158272480Y-64805560D02*
X156471620Y-64805560D01*
X158272480Y-64805560D02*
X158272480Y-65455800D01*
X158272480Y-69306440D02*
X156471620Y-69306440D01*
X158272480Y-69306440D02*
X158272480Y-68656200D01*
X200900000Y-66329000D02*
X200900000Y-67529000D01*
X199150000Y-67529000D02*
X199150000Y-66329000D01*
X104018080Y-71003160D02*
X107817920Y-71003160D01*
X104018080Y-64302640D02*
X104018080Y-69301360D01*
X107817920Y-64305180D02*
X107817920Y-69303900D01*
X103014780Y-71506080D02*
X104114600Y-71506080D01*
X103515160Y-72105520D02*
X103515160Y-70906640D01*
X108082080Y-71003160D02*
X111881920Y-71003160D01*
X108082080Y-64302640D02*
X108082080Y-69301360D01*
X111881920Y-64305180D02*
X111881920Y-69303900D01*
X107078780Y-71506080D02*
X108178600Y-71506080D01*
X107579160Y-72105520D02*
X107579160Y-70906640D01*
X201625000Y-67600000D02*
X201625000Y-66400000D01*
X203375000Y-66400000D02*
X203375000Y-67600000D01*
X134269381Y-68032190D02*
X133269381Y-68032190D01*
X134174143Y-66984571D02*
X134221762Y-67032190D01*
X134269381Y-67175047D01*
X134269381Y-67270285D01*
X134221762Y-67413143D01*
X134126524Y-67508381D01*
X134031286Y-67556000D01*
X133840810Y-67603619D01*
X133697952Y-67603619D01*
X133507476Y-67556000D01*
X133412238Y-67508381D01*
X133317000Y-67413143D01*
X133269381Y-67270285D01*
X133269381Y-67175047D01*
X133317000Y-67032190D01*
X133364619Y-66984571D01*
X134269381Y-66032190D02*
X134269381Y-66603619D01*
X134269381Y-66317905D02*
X133269381Y-66317905D01*
X133412238Y-66413143D01*
X133507476Y-66508381D01*
X133555095Y-66603619D01*
X71095238Y-66952381D02*
X71333333Y-67952381D01*
X71523810Y-67238095D01*
X71714286Y-67952381D01*
X71952381Y-66952381D01*
X72857143Y-67952381D02*
X72285714Y-67952381D01*
X72571428Y-67952381D02*
X72571428Y-66952381D01*
X72476190Y-67095238D01*
X72380952Y-67190476D01*
X72285714Y-67238095D01*
X191095238Y-66952381D02*
X191333333Y-67952381D01*
X191523810Y-67238095D01*
X191714286Y-67952381D01*
X191952381Y-66952381D01*
X192285714Y-67047619D02*
X192333333Y-67000000D01*
X192428571Y-66952381D01*
X192666667Y-66952381D01*
X192761905Y-67000000D01*
X192809524Y-67047619D01*
X192857143Y-67142857D01*
X192857143Y-67238095D01*
X192809524Y-67380952D01*
X192238095Y-67952381D01*
X192857143Y-67952381D01*
X171301683Y-67423326D02*
X171349302Y-67470945D01*
X171396921Y-67613802D01*
X171396921Y-67709040D01*
X171349302Y-67851898D01*
X171254064Y-67947136D01*
X171158826Y-67994755D01*
X170968350Y-68042374D01*
X170825492Y-68042374D01*
X170635016Y-67994755D01*
X170539778Y-67947136D01*
X170444540Y-67851898D01*
X170396921Y-67709040D01*
X170396921Y-67613802D01*
X170444540Y-67470945D01*
X170492159Y-67423326D01*
X171396921Y-66470945D02*
X171396921Y-67042374D01*
X171396921Y-66756660D02*
X170396921Y-66756660D01*
X170539778Y-66851898D01*
X170635016Y-66947136D01*
X170682635Y-67042374D01*
X171915129Y-72138492D02*
X171915129Y-71376587D01*
X172296081Y-71757539D02*
X171534176Y-71757539D01*
X76559683Y-67169326D02*
X76607302Y-67216945D01*
X76654921Y-67359802D01*
X76654921Y-67455040D01*
X76607302Y-67597898D01*
X76512064Y-67693136D01*
X76416826Y-67740755D01*
X76226350Y-67788374D01*
X76083492Y-67788374D01*
X75893016Y-67740755D01*
X75797778Y-67693136D01*
X75702540Y-67597898D01*
X75654921Y-67455040D01*
X75654921Y-67359802D01*
X75702540Y-67216945D01*
X75750159Y-67169326D01*
X75988254Y-66312183D02*
X76654921Y-66312183D01*
X75607302Y-66550279D02*
X76321588Y-66788374D01*
X76321588Y-66169326D01*
X77173129Y-71884492D02*
X77173129Y-71122587D01*
X77554081Y-71503539D02*
X76792176Y-71503539D01*
X81004683Y-67169326D02*
X81052302Y-67216945D01*
X81099921Y-67359802D01*
X81099921Y-67455040D01*
X81052302Y-67597898D01*
X80957064Y-67693136D01*
X80861826Y-67740755D01*
X80671350Y-67788374D01*
X80528492Y-67788374D01*
X80338016Y-67740755D01*
X80242778Y-67693136D01*
X80147540Y-67597898D01*
X80099921Y-67455040D01*
X80099921Y-67359802D01*
X80147540Y-67216945D01*
X80195159Y-67169326D01*
X80099921Y-66312183D02*
X80099921Y-66502660D01*
X80147540Y-66597898D01*
X80195159Y-66645517D01*
X80338016Y-66740755D01*
X80528492Y-66788374D01*
X80909445Y-66788374D01*
X81004683Y-66740755D01*
X81052302Y-66693136D01*
X81099921Y-66597898D01*
X81099921Y-66407421D01*
X81052302Y-66312183D01*
X81004683Y-66264564D01*
X80909445Y-66216945D01*
X80671350Y-66216945D01*
X80576111Y-66264564D01*
X80528492Y-66312183D01*
X80480873Y-66407421D01*
X80480873Y-66597898D01*
X80528492Y-66693136D01*
X80576111Y-66740755D01*
X80671350Y-66788374D01*
X81618129Y-71884492D02*
X81618129Y-71122587D01*
X81999081Y-71503539D02*
X81237176Y-71503539D01*
X86719683Y-67169326D02*
X86767302Y-67216945D01*
X86814921Y-67359802D01*
X86814921Y-67455040D01*
X86767302Y-67597898D01*
X86672064Y-67693136D01*
X86576826Y-67740755D01*
X86386350Y-67788374D01*
X86243492Y-67788374D01*
X86053016Y-67740755D01*
X85957778Y-67693136D01*
X85862540Y-67597898D01*
X85814921Y-67455040D01*
X85814921Y-67359802D01*
X85862540Y-67216945D01*
X85910159Y-67169326D01*
X85814921Y-66835993D02*
X85814921Y-66169326D01*
X86814921Y-66597898D01*
X87333129Y-71884492D02*
X87333129Y-71122587D01*
X87714081Y-71503539D02*
X86952176Y-71503539D01*
X90783683Y-67169326D02*
X90831302Y-67216945D01*
X90878921Y-67359802D01*
X90878921Y-67455040D01*
X90831302Y-67597898D01*
X90736064Y-67693136D01*
X90640826Y-67740755D01*
X90450350Y-67788374D01*
X90307492Y-67788374D01*
X90117016Y-67740755D01*
X90021778Y-67693136D01*
X89926540Y-67597898D01*
X89878921Y-67455040D01*
X89878921Y-67359802D01*
X89926540Y-67216945D01*
X89974159Y-67169326D01*
X90307492Y-66597898D02*
X90259873Y-66693136D01*
X90212254Y-66740755D01*
X90117016Y-66788374D01*
X90069397Y-66788374D01*
X89974159Y-66740755D01*
X89926540Y-66693136D01*
X89878921Y-66597898D01*
X89878921Y-66407421D01*
X89926540Y-66312183D01*
X89974159Y-66264564D01*
X90069397Y-66216945D01*
X90117016Y-66216945D01*
X90212254Y-66264564D01*
X90259873Y-66312183D01*
X90307492Y-66407421D01*
X90307492Y-66597898D01*
X90355111Y-66693136D01*
X90402730Y-66740755D01*
X90497969Y-66788374D01*
X90688445Y-66788374D01*
X90783683Y-66740755D01*
X90831302Y-66693136D01*
X90878921Y-66597898D01*
X90878921Y-66407421D01*
X90831302Y-66312183D01*
X90783683Y-66264564D01*
X90688445Y-66216945D01*
X90497969Y-66216945D01*
X90402730Y-66264564D01*
X90355111Y-66312183D01*
X90307492Y-66407421D01*
X91397129Y-71884492D02*
X91397129Y-71122587D01*
X91778081Y-71503539D02*
X91016176Y-71503539D01*
X94847683Y-67169326D02*
X94895302Y-67216945D01*
X94942921Y-67359802D01*
X94942921Y-67455040D01*
X94895302Y-67597898D01*
X94800064Y-67693136D01*
X94704826Y-67740755D01*
X94514350Y-67788374D01*
X94371492Y-67788374D01*
X94181016Y-67740755D01*
X94085778Y-67693136D01*
X93990540Y-67597898D01*
X93942921Y-67455040D01*
X93942921Y-67359802D01*
X93990540Y-67216945D01*
X94038159Y-67169326D01*
X94942921Y-66693136D02*
X94942921Y-66502660D01*
X94895302Y-66407421D01*
X94847683Y-66359802D01*
X94704826Y-66264564D01*
X94514350Y-66216945D01*
X94133397Y-66216945D01*
X94038159Y-66264564D01*
X93990540Y-66312183D01*
X93942921Y-66407421D01*
X93942921Y-66597898D01*
X93990540Y-66693136D01*
X94038159Y-66740755D01*
X94133397Y-66788374D01*
X94371492Y-66788374D01*
X94466730Y-66740755D01*
X94514350Y-66693136D01*
X94561969Y-66597898D01*
X94561969Y-66407421D01*
X94514350Y-66312183D01*
X94466730Y-66264564D01*
X94371492Y-66216945D01*
X95461129Y-71884492D02*
X95461129Y-71122587D01*
X95842081Y-71503539D02*
X95080176Y-71503539D01*
X98911683Y-67645517D02*
X98959302Y-67693136D01*
X99006921Y-67835993D01*
X99006921Y-67931231D01*
X98959302Y-68074089D01*
X98864064Y-68169327D01*
X98768826Y-68216946D01*
X98578350Y-68264565D01*
X98435492Y-68264565D01*
X98245016Y-68216946D01*
X98149778Y-68169327D01*
X98054540Y-68074089D01*
X98006921Y-67931231D01*
X98006921Y-67835993D01*
X98054540Y-67693136D01*
X98102159Y-67645517D01*
X99006921Y-66693136D02*
X99006921Y-67264565D01*
X99006921Y-66978851D02*
X98006921Y-66978851D01*
X98149778Y-67074089D01*
X98245016Y-67169327D01*
X98292635Y-67264565D01*
X98006921Y-66074089D02*
X98006921Y-65978850D01*
X98054540Y-65883612D01*
X98102159Y-65835993D01*
X98197397Y-65788374D01*
X98387873Y-65740755D01*
X98625969Y-65740755D01*
X98816445Y-65788374D01*
X98911683Y-65835993D01*
X98959302Y-65883612D01*
X99006921Y-65978850D01*
X99006921Y-66074089D01*
X98959302Y-66169327D01*
X98911683Y-66216946D01*
X98816445Y-66264565D01*
X98625969Y-66312184D01*
X98387873Y-66312184D01*
X98197397Y-66264565D01*
X98102159Y-66216946D01*
X98054540Y-66169327D01*
X98006921Y-66074089D01*
X99525129Y-71884492D02*
X99525129Y-71122587D01*
X99906081Y-71503539D02*
X99144176Y-71503539D01*
X111103683Y-67645517D02*
X111151302Y-67693136D01*
X111198921Y-67835993D01*
X111198921Y-67931231D01*
X111151302Y-68074089D01*
X111056064Y-68169327D01*
X110960826Y-68216946D01*
X110770350Y-68264565D01*
X110627492Y-68264565D01*
X110437016Y-68216946D01*
X110341778Y-68169327D01*
X110246540Y-68074089D01*
X110198921Y-67931231D01*
X110198921Y-67835993D01*
X110246540Y-67693136D01*
X110294159Y-67645517D01*
X111198921Y-66693136D02*
X111198921Y-67264565D01*
X111198921Y-66978851D02*
X110198921Y-66978851D01*
X110341778Y-67074089D01*
X110437016Y-67169327D01*
X110484635Y-67264565D01*
X111198921Y-65740755D02*
X111198921Y-66312184D01*
X111198921Y-66026470D02*
X110198921Y-66026470D01*
X110341778Y-66121708D01*
X110437016Y-66216946D01*
X110484635Y-66312184D01*
X111717129Y-71884492D02*
X111717129Y-71122587D01*
X112098081Y-71503539D02*
X111336176Y-71503539D01*
X115294683Y-67645517D02*
X115342302Y-67693136D01*
X115389921Y-67835993D01*
X115389921Y-67931231D01*
X115342302Y-68074089D01*
X115247064Y-68169327D01*
X115151826Y-68216946D01*
X114961350Y-68264565D01*
X114818492Y-68264565D01*
X114628016Y-68216946D01*
X114532778Y-68169327D01*
X114437540Y-68074089D01*
X114389921Y-67931231D01*
X114389921Y-67835993D01*
X114437540Y-67693136D01*
X114485159Y-67645517D01*
X115389921Y-66693136D02*
X115389921Y-67264565D01*
X115389921Y-66978851D02*
X114389921Y-66978851D01*
X114532778Y-67074089D01*
X114628016Y-67169327D01*
X114675635Y-67264565D01*
X114485159Y-66312184D02*
X114437540Y-66264565D01*
X114389921Y-66169327D01*
X114389921Y-65931231D01*
X114437540Y-65835993D01*
X114485159Y-65788374D01*
X114580397Y-65740755D01*
X114675635Y-65740755D01*
X114818492Y-65788374D01*
X115389921Y-66359803D01*
X115389921Y-65740755D01*
X115908129Y-71884492D02*
X115908129Y-71122587D01*
X116289081Y-71503539D02*
X115527176Y-71503539D01*
X161425641Y-67767105D02*
X162235165Y-67767105D01*
X162330403Y-67719486D01*
X162378022Y-67671867D01*
X162425641Y-67576629D01*
X162425641Y-67386152D01*
X162378022Y-67290914D01*
X162330403Y-67243295D01*
X162235165Y-67195676D01*
X161425641Y-67195676D01*
X162425641Y-66195676D02*
X162425641Y-66767105D01*
X162425641Y-66481391D02*
X161425641Y-66481391D01*
X161568498Y-66576629D01*
X161663736Y-66671867D01*
X161711355Y-66767105D01*
X198377381Y-67095666D02*
X197901190Y-67429000D01*
X198377381Y-67667095D02*
X197377381Y-67667095D01*
X197377381Y-67286142D01*
X197425000Y-67190904D01*
X197472619Y-67143285D01*
X197567857Y-67095666D01*
X197710714Y-67095666D01*
X197805952Y-67143285D01*
X197853571Y-67190904D01*
X197901190Y-67286142D01*
X197901190Y-67667095D01*
X197377381Y-66762333D02*
X197377381Y-66095666D01*
X198377381Y-66524238D01*
X102975683Y-67645517D02*
X103023302Y-67693136D01*
X103070921Y-67835993D01*
X103070921Y-67931231D01*
X103023302Y-68074089D01*
X102928064Y-68169327D01*
X102832826Y-68216946D01*
X102642350Y-68264565D01*
X102499492Y-68264565D01*
X102309016Y-68216946D01*
X102213778Y-68169327D01*
X102118540Y-68074089D01*
X102070921Y-67931231D01*
X102070921Y-67835993D01*
X102118540Y-67693136D01*
X102166159Y-67645517D01*
X103070921Y-66693136D02*
X103070921Y-67264565D01*
X103070921Y-66978851D02*
X102070921Y-66978851D01*
X102213778Y-67074089D01*
X102309016Y-67169327D01*
X102356635Y-67264565D01*
X102070921Y-66359803D02*
X102070921Y-65740755D01*
X102451873Y-66074089D01*
X102451873Y-65931231D01*
X102499492Y-65835993D01*
X102547111Y-65788374D01*
X102642350Y-65740755D01*
X102880445Y-65740755D01*
X102975683Y-65788374D01*
X103023302Y-65835993D01*
X103070921Y-65931231D01*
X103070921Y-66216946D01*
X103023302Y-66312184D01*
X102975683Y-66359803D01*
X103589129Y-71884492D02*
X103589129Y-71122587D01*
X103970081Y-71503539D02*
X103208176Y-71503539D01*
X107039683Y-67645517D02*
X107087302Y-67693136D01*
X107134921Y-67835993D01*
X107134921Y-67931231D01*
X107087302Y-68074089D01*
X106992064Y-68169327D01*
X106896826Y-68216946D01*
X106706350Y-68264565D01*
X106563492Y-68264565D01*
X106373016Y-68216946D01*
X106277778Y-68169327D01*
X106182540Y-68074089D01*
X106134921Y-67931231D01*
X106134921Y-67835993D01*
X106182540Y-67693136D01*
X106230159Y-67645517D01*
X107134921Y-66693136D02*
X107134921Y-67264565D01*
X107134921Y-66978851D02*
X106134921Y-66978851D01*
X106277778Y-67074089D01*
X106373016Y-67169327D01*
X106420635Y-67264565D01*
X106468254Y-65835993D02*
X107134921Y-65835993D01*
X106087302Y-66074089D02*
X106801588Y-66312184D01*
X106801588Y-65693136D01*
X107653129Y-71884492D02*
X107653129Y-71122587D01*
X108034081Y-71503539D02*
X107272176Y-71503539D01*
X205052381Y-67166666D02*
X204576190Y-67500000D01*
X205052381Y-67738095D02*
X204052381Y-67738095D01*
X204052381Y-67357142D01*
X204100000Y-67261904D01*
X204147619Y-67214285D01*
X204242857Y-67166666D01*
X204385714Y-67166666D01*
X204480952Y-67214285D01*
X204528571Y-67261904D01*
X204576190Y-67357142D01*
X204576190Y-67738095D01*
X204480952Y-66595238D02*
X204433333Y-66690476D01*
X204385714Y-66738095D01*
X204290476Y-66785714D01*
X204242857Y-66785714D01*
X204147619Y-66738095D01*
X204100000Y-66690476D01*
X204052381Y-66595238D01*
X204052381Y-66404761D01*
X204100000Y-66309523D01*
X204147619Y-66261904D01*
X204242857Y-66214285D01*
X204290476Y-66214285D01*
X204385714Y-66261904D01*
X204433333Y-66309523D01*
X204480952Y-66404761D01*
X204480952Y-66595238D01*
X204528571Y-66690476D01*
X204576190Y-66738095D01*
X204671429Y-66785714D01*
X204861905Y-66785714D01*
X204957143Y-66738095D01*
X205004762Y-66690476D01*
X205052381Y-66595238D01*
X205052381Y-66404761D01*
X205004762Y-66309523D01*
X204957143Y-66261904D01*
X204861905Y-66214285D01*
X204671429Y-66214285D01*
X204576190Y-66261904D01*
X204528571Y-66309523D01*
X204480952Y-66404761D01*
M02*
