M48
;DRILL file {KiCad 4.0.4+dfsg1-stable} date Sun Dec 11 16:05:09 2016
;FORMAT={-:-/ absolute / inch / decimal}
FMAT,2
INCH,TZ
T1C0.016
T2C0.087
%
G90
G05
M72
T1
X2.3Y-2.59
X2.3Y-2.69
X2.5213Y-2.48
X2.57Y-2.79
X2.86Y-2.48
X3.215Y-2.51
X3.42Y-2.6813
X3.6Y-2.62
X3.6Y-2.735
X3.635Y-2.545
X3.635Y-2.5455
X3.925Y-2.53
X4.41Y-2.49
X4.78Y-2.645
X4.84Y-2.71
X4.885Y-2.565
X4.94Y-2.655
X5.025Y-2.755
X5.145Y-2.755
X5.33Y-2.5337
X5.33Y-2.68
X5.38Y-2.535
X5.7Y-2.53
X5.79Y-2.68
X6.Y-2.78
X6.04Y-2.755
X6.04Y-2.81
X6.08Y-2.7
X6.09Y-2.58
X6.14Y-2.78
X6.18Y-2.755
X6.24Y-2.64
X6.7Y-2.495
X6.86Y-2.54
X6.86Y-2.74
X6.925Y-2.495
X6.96Y-2.6813
X7.05Y-2.64
X7.42Y-2.5
X7.67Y-2.49
X7.96Y-2.48
X8.1337Y-2.785
X8.14Y-2.68
X8.225Y-2.5987
X8.225Y-2.6813
T2
X2.7795Y-2.6378G85X2.8898Y-2.6378
G05
X7.5039Y-2.6378G85X7.6142Y-2.6378
G05
T0
M30
